# xmcd
# Track frame offsets:
# 150
# 11841
# 22585
# 33948
# 44148
# 55051
# 65842
# 77430
# 89730
# 101299
# 110159
# 120650
# 133016
# 143910
# 152076
# 165961
# 178252
# 189952
# 201043
# 211049
# 222112
# 231300
# 239850
# 248897
# 259266
#
# Disc length: 3619 seconds
# Revision: 0
# Processed by: cddbd v1.5.2PL0 Copyright (c) Steve Scherf et al.
# Submitted via: VisiTrax 2.11.3.279 - For more info visit www.synapsa.com
#
DISCID=640e2119
DTITLE=Various (1950's and 1960's) Pop and R&B and Soul Artists - Northern Soul Kic
DTITLE=ks - 50 Original Soul Anthems and Dance Floor Classics: CD1: ReMastere
DTITLE=d Tracks
DYEAR=1973
DGENRE=R&B
TTITLE0=Eddie Holland - Leaving Here*
TTITLE1=Composers The - You And Yours*
TTITLE2=Mary Wells - You Lost The Sweetest Boy*
TTITLE3=Tony Clarke - Landslide*
TTITLE4=Marvellettes The - Way Over There*
TTITLE5=Jimmy Ruffin - Don't Feel Sorry For Me*
TTITLE6=Smokey Robinson and The Miracles - Ain't It, Baby*
TTITLE7=LaBrenda Ben and Ther Beljeans - Camel Walk*
TTITLE8=Jackie Wilson - Am I The Man*
TTITLE9=Gary U.S. Bonds - That's All Right*
TTITLE10=Dovells The - You Can't Sit Down*
TTITLE11=Temptations The - Check Yourself*
TTITLE12=Don McKenzie - Whose Heart (Are You Gonna Break Now)*
TTITLE13=Knockouts The - Fever*
TTITLE14=Marv Johnson - Easier Said (Than Done)*
TTITLE15=Isley Brothers The - Tell Me Who*
TTITLE16=Ducanes The - I'm So Happy*
TTITLE17=Chantels The with The Sammy Lowe Orchestra - Well I Told You*
TTITLE18=Ronnie Jones - My Love*
TTITLE19=O'Jays The - Miracles*
TTITLE20=Patience Valentine - If You Don't Come*
TTITLE21=Gino Parks - Don't Say Bye-Bye*
TTITLE22=Tams The - Disillusioned*
TTITLE23=Countours The - Can You Do It*
TTITLE24=Darlene Love with The Crystals - He's Sure The Boy I Love*
EXTD=Compilation and ReMastering: Soul Jam Records: 2014
EXTT0=
EXTT1=
EXTT2=
EXTT3=
EXTT4=
EXTT5=
EXTT6=
EXTT7=
EXTT8=
EXTT9=
EXTT10=
EXTT11=
EXTT12=
EXTT13=
EXTT14=
EXTT15=
EXTT16=
EXTT17=
EXTT18=
EXTT19=
EXTT20=
EXTT21=
EXTT22=
EXTT23=
EXTT24=
PLAYORDER=
